<?xml version="1.0" encoding="UTF-8"?>
<svg xmlns="http://www.w3.org/2000/svg" xmlns:xlink="http://www.w3.org/1999/xlink" width="16px" height="16px" viewBox="0 0 16 16" version="1.1">
<g id="surface1">
<path style=" stroke:none;fill-rule:nonzero;fill:rgb(0%,0%,0%);fill-opacity:1;" d="M 7.128906 10.089844 C 7.035156 10.089844 6.941406 10.0625 6.859375 10.011719 C 6.199219 9.582031 5.726562 8.890625 5.558594 8.113281 C 5.554688 8.085938 5.550781 8.058594 5.550781 8.027344 C 5.519531 7.863281 5.5 7.6875 5.5 7.5 C 5.5 6.695312 5.8125 5.941406 6.375 5.375 L 9.875 1.875 C 10.433594 1.320312 11.207031 1 12 1 C 13.652344 1 15 2.347656 15 4 C 15 4.804688 14.6875 5.558594 14.121094 6.125 L 12.265625 7.984375 C 12.070312 8.179688 11.753906 8.179688 11.558594 7.984375 C 11.363281 7.789062 11.363281 7.472656 11.558594 7.277344 L 13.414062 5.417969 C 13.792969 5.039062 14 4.535156 14 4 C 14 2.898438 13.101562 2 12 2 C 11.46875 2 10.953125 2.210938 10.585938 2.582031 L 7.085938 6.082031 C 6.707031 6.460938 6.5 6.964844 6.5 7.5 C 6.5 7.621094 6.511719 7.734375 6.53125 7.84375 C 6.546875 7.890625 6.554688 7.9375 6.558594 7.984375 C 6.683594 8.472656 6.984375 8.902344 7.402344 9.171875 C 7.632812 9.320312 7.699219 9.628906 7.550781 9.859375 C 7.453125 10.011719 7.292969 10.089844 7.128906 10.089844 Z M 7.128906 10.089844 "/>
<path style=" stroke:none;fill-rule:nonzero;fill:rgb(0%,0%,0%);fill-opacity:1;" d="M 4 15 C 2.347656 15 1 13.652344 1 12 C 1 11.207031 1.320312 10.433594 1.878906 9.878906 L 3.734375 8.015625 C 3.929688 7.820312 4.246094 7.820312 4.441406 8.015625 C 4.636719 8.210938 4.636719 8.527344 4.441406 8.722656 L 2.582031 10.585938 C 2.210938 10.953125 2 11.46875 2 12 C 2 13.101562 2.898438 14 4 14 C 4.535156 14 5.039062 13.792969 5.417969 13.414062 L 8.917969 9.914062 C 9.285156 9.546875 9.5 9.027344 9.5 8.5 C 9.5 8.097656 9.386719 7.71875 9.167969 7.40625 C 9.019531 7.171875 8.828125 6.980469 8.609375 6.839844 C 8.378906 6.691406 8.308594 6.382812 8.460938 6.148438 C 8.609375 5.917969 8.917969 5.847656 9.148438 6 C 9.488281 6.21875 9.785156 6.511719 10 6.851562 C 10.324219 7.316406 10.5 7.890625 10.5 8.5 C 10.5 9.292969 10.179688 10.066406 9.621094 10.621094 L 6.121094 14.121094 C 5.558594 14.6875 4.804688 15 4 15 Z M 4 15 "/>
</g>
</svg>
